<svg width="62" height="41" viewBox="0 0 62 41" fill="none" xmlns="http://www.w3.org/2000/svg">
<path d="M9.99023 32.0327C9.4655 32.5171 9.05176 33.0822 8.74902 33.728C8.44629 34.3739 8.29492 35.0802 8.29492 35.8472C8.29492 36.2912 8.34538 36.7251 8.44629 37.1489C8.5472 37.5728 8.69857 37.9663 8.90039 38.3296H8.96094C9.28385 38.9351 9.70768 39.4396 10.2324 39.8433C10.7572 40.2469 11.3626 40.5295 12.0488 40.6909H11.9883C12.1901 40.7313 12.3919 40.7716 12.5938 40.812C12.7956 40.8524 12.9974 40.8726 13.1992 40.8726C13.6836 40.8726 14.1478 40.8019 14.5918 40.6606C15.0358 40.5194 15.4395 40.3478 15.8027 40.146C18.3053 38.6525 20.3942 36.8462 22.0693 34.7271C23.7445 32.6079 25.0664 30.4181 26.0352 28.1577C27.0443 25.9377 27.7809 23.6974 28.2451 21.437C28.7093 19.1766 28.9414 17.1382 28.9414 15.3218C28.9414 13.3439 28.5579 11.467 27.791 9.69092C27.0241 7.95524 25.9847 6.43148 24.6729 5.11963C23.361 3.80778 21.8372 2.76839 20.1016 2.00146C18.3255 1.23454 16.4486 0.851074 14.4707 0.851074C12.4525 0.851074 10.5755 1.23454 8.83984 2.00146C7.0638 2.76839 5.52995 3.80778 4.23828 5.11963C2.94661 6.43148 1.91732 7.95524 1.15039 9.69092C0.383464 11.467 0 13.3439 0 15.3218C0 17.1382 0.302734 18.8335 0.908203 20.4077C1.55404 22.0223 2.42188 23.4653 3.51172 24.7368C4.60156 26.0083 5.87305 27.0679 7.32617 27.9155C8.81966 28.7632 10.4342 29.3283 12.1699 29.6108V29.6714C11.8066 30.075 11.4434 30.4686 11.0801 30.8521C10.7168 31.2355 10.3535 31.6291 9.99023 32.0327ZM43.0488 32.0327C42.5241 32.5171 42.1104 33.0822 41.8076 33.728C41.5049 34.3739 41.3535 35.0802 41.3535 35.8472C41.3535 36.2912 41.404 36.7251 41.5049 37.1489C41.6058 37.5728 41.7572 37.9663 41.959 38.3296C42.2819 38.9351 42.7158 39.4396 43.2607 39.8433C43.8057 40.2469 44.4212 40.5295 45.1074 40.6909C45.2689 40.7313 45.4505 40.7716 45.6523 40.812C45.8542 40.8524 46.056 40.8726 46.2578 40.8726C46.7422 40.8726 47.2064 40.8019 47.6504 40.6606C48.0944 40.5194 48.498 40.3478 48.8613 40.146C51.3639 38.6525 53.4528 36.8462 55.1279 34.7271C56.8031 32.6079 58.125 30.4181 59.0938 28.1577C60.1029 25.9377 60.8395 23.6974 61.3037 21.437C61.7679 19.1766 62 17.1382 62 15.3218C62 13.3439 61.6165 11.467 60.8496 9.69092C60.0827 7.95524 59.0534 6.43148 57.7617 5.11963C56.4701 3.80778 54.9362 2.76839 53.1602 2.00146C51.4245 1.23454 49.5475 0.851074 47.5293 0.851074C45.5514 0.851074 43.6745 1.23454 41.8984 2.00146C40.1628 2.76839 38.639 3.80778 37.3271 5.11963C36.0153 6.43148 34.9759 7.95524 34.209 9.69092C33.4421 11.467 33.0586 13.3439 33.0586 15.3218C33.0586 17.1382 33.3613 18.8335 33.9668 20.4077C34.6126 22.0223 35.4805 23.4653 36.5703 24.7368C37.6602 26.0083 38.9316 27.0679 40.3848 27.9155C41.8783 28.7632 43.4928 29.3283 45.2285 29.6108C44.946 29.9741 44.623 30.3576 44.2598 30.7612C43.8965 31.1649 43.4928 31.5887 43.0488 32.0327Z" fill="#6754E9"/>
</svg>
